PathFileType	4	(X/Y/Z)	c:\Git\1_current_projects\powerlifing_model\simulations\Athlete_03\22_07_06\dl_70_test\markers_experimental.trc
DataRate	CameraRate	NumFrames	NumMarkers	Units	OrigDataRate	OrigDataStartFrame	OrigNumFrames
200.000000	200.000000	4	59	mm	200.000000	702	2810
Frame#	Time	BL			BR			GLAB			RFHD			LFHD			C7			T6			SPINMOL			SPINM2			SPINM3			BELTOL			BELT2			BELT3			SACROL			SACR2			SACR3			LTHOL			LTH2			LTH3			LSHAOL			LSHA2			LSHA3			LHEE			LTOE			LM5			RTHOL			RTH2			RTH3			RSHAOL			RSHA2			RSHA3			RHEE			RTOE			RM5			STRN			XIPH			LACR			LUAOL			LUA2			LUA3			LLAOL			LLA2			LLA3			LWRU			RACR			RUAOL			RUA2			RUA3			RLAOL			RLA2			RLA3			RWRU			T12			USERMO0			USERMO1			USERMO2			USERMO3			USERMO4			USERMO5			
		X1	Y1	Z1	X2	Y2	Z2	X3	Y3	Z3	X4	Y4	Z4	X5	Y5	Z5	X6	Y6	Z6	X7	Y7	Z7	X8	Y8	Z8	X9	Y9	Z9	X10	Y10	Z10	X11	Y11	Z11	X12	Y12	Z12	X13	Y13	Z13	X14	Y14	Z14	X15	Y15	Z15	X16	Y16	Z16	X17	Y17	Z17	X18	Y18	Z18	X19	Y19	Z19	X20	Y20	Z20	X21	Y21	Z21	X22	Y22	Z22	X23	Y23	Z23	X24	Y24	Z24	X25	Y25	Z25	X26	Y26	Z26	X27	Y27	Z27	X28	Y28	Z28	X29	Y29	Z29	X30	Y30	Z30	X31	Y31	Z31	X32	Y32	Z32	X33	Y33	Z33	X34	Y34	Z34	X35	Y35	Z35	X36	Y36	Z36	X37	Y37	Z37	X38	Y38	Z38	X39	Y39	Z39	X40	Y40	Z40	X41	Y41	Z41	X42	Y42	Z42	X43	Y43	Z43	X44	Y44	Z44	X45	Y45	Z45	X46	Y46	Z46	X47	Y47	Z47	X48	Y48	Z48	X49	Y49	Z49	X50	Y50	Z50	X51	Y51	Z51	X52	Y52	Z52	X53	Y53	Z53	X54	Y54	Z54	X55	Y55	Z55	X56	Y56	Z56	X57	Y57	Z57	X58	Y58	Z58	X59	Y59	Z59	

703	3.51	198.5904541015626	249.134750366211	-2316.84130859375	237.3911285400391	252.1403350830079	-94.15805053710939	572.9404296875001	732.1380004882814	-1203.233032226563	583.8508911132814	786.8391113281252	-1122.8310546875	582.8425903320314	800.217956542969	-1277.330322265625	455.6062011718751	956.8833007812502	-1192.492309570313	262.6010742187501	1041.743774414063	-1199.298461914063	226.1724548339844	1052.817993164063	-1200.337036132813	165.5093231201172	1055.1767578125	-1147.964721679688	164.0501251220703	1054.4267578125	-1197.8779296875	70.69847869873048	1068.984008789063	-1197.97509765625	13.66071605682373	1054.2919921875	-1143.867553710938	9.312825202941896	1059.365600585938	-1193.569091796875	-96.77799987792972	984.8529052734377	-1214.757080078125	-85.9848098754883	988.2873535156252	-1164.916015625	-143.8099517822266	958.8226318359377	-1175.66748046875	22.36481094360352	726.6396484375001	-1425.956787109375	8.523793220520021	647.8063354492189	-1421.979736328125	52.50717544555665	672.5383300781251	-1426.13720703125	110.2493896484375	350.2060546875001	-1437.159912109375	67.10118103027345	284.5828247070313	-1431.344970703125	116.5018157958985	288.7271118164063	-1431.217895507813	26.17162513732911	69.48815917968751	-1352.705932617188	236.1897583007813	72.09997558593751	-1341.28662109375	199.928695678711	59.33187103271486	-1448.810668945313	27.53314399719239	690.4108886718751	-968.8388671875002	100.3939895629883	657.5712890625001	-965.7465820312502	55.61488723754884	634.8096313476564	-967.4356079101565	88.91130828857423	340.5703735351563	-959.782409667969	127.1584854125977	271.1575012207032	-963.2072753906252	78.0791702270508	280.9143066406251	-968.885925292969	25.16428565979005	62.12575912475587	-1058.2802734375	236.6926422119141	68.9841766357422	-1044.449462890625	193.058578491211	68.50323486328126	-946.9492187500002	364.3977355957032	805.615173339844	-1202.007080078125	210.5023651123047	781.2226562500002	-1188.83837890625	403.9342346191407	842.6921997070315	-1393.0263671875	342.5945739746094	739.2974853515626	-1473.377197265625	296.4047241210938	699.6422119140626	-1500.816284179688	332.4506530761719	674.0545043945314	-1474	271.1031188964844	465.970428466797	-1487.080078125	242.0885467529297	407.6945190429689	-1496.929321289063	271.3610229492188	408.7136230468751	-1456.218505859375	241.0876007080079	318.8996582031251	-1471.786987304688	406.5485839843751	835.8422851562502	-1013.826354980469	344.8233947753907	700.2553710937501	-956.574401855469	328.5757751464844	641.0662231445314	-979.2145996093752	324.4929809570313	643.3589477539064	-929.1507568359377	279.7781066894532	457.3504028320314	-927.0791015625002	271.7278137207032	404.0500488281251	-963.340759277344	263.5077209472657	396.3639221191407	-913.4053955078127	249.4410400390626	325.6494445800782	-917.6226196289065	105.0550079345703	1043.008178710938	-1197.884399414063	0.02721519954502583	0.007214230019599201	-0.03679950162768365	0.009035729803144934	0.009936190210282804	-0.007149139884859325	0.00811342988163233	0.0819268971681595	-0.009927559643983843	0.01283970009535551	0.176595002412796	-0.7392529845237733	0.3909130096435548	2.94350004196167	-0.3603230118751526	2.905270099639893	0	0	
704	3.515	198.5731506347657	249.130355834961	-2316.831298828125	237.3638763427735	252.1393585205079	-94.15493011474611	573.2326660156251	731.9918823242189	-1202.968627929688	584.1420898437501	786.9312133789065	-1122.714233398438	583.0902709960939	799.8603515625002	-1277.257202148438	455.9190673828126	956.7302856445315	-1192.610229492188	262.9898681640626	1041.691772460938	-1199.340087890625	226.5615386962891	1052.800903320313	-1200.364624023438	165.9137725830078	1055.18408203125	-1147.977905273438	164.4425506591797	1054.45849609375	-1197.890380859375	71.07582092285158	1069.085083007813	-1197.960693359375	14.05205535888672	1054.410034179688	-1143.837768554688	9.685885429382326	1059.501708984375	-1193.534912109375	-96.47037506103518	985.0329589843752	-1214.713500976563	-85.65561676025392	988.4449462890627	-1164.865600585938	-143.4977264404297	959.0054931640627	-1175.609252929688	22.61329650878907	726.9039306640626	-1426.037353515625	8.834888458251955	648.0678100585939	-1422.033813476563	52.79589080810548	672.8328857421876	-1426.230834960938	110.7267303466797	350.5345764160157	-1436.968017578125	67.55715942382814	284.9337158203126	-1431.067749023438	116.9582824707032	289.0622558593751	-1430.984008789063	26.2920036315918	70.14281463623048	-1352.368774414063	236.2210083007813	72.04791259765626	-1341.093627929688	199.9579010009766	59.52562713623048	-1448.550903320313	27.91139221191407	690.5357055664064	-968.9556274414065	100.7575454711914	657.6463623046876	-965.957458496094	55.95930099487306	634.9151000976564	-967.5920410156252	89.05419158935548	340.6562500000001	-959.7630004882815	127.2146224975586	271.1963500976563	-963.2053833007815	78.1365432739258	281.0089721679688	-968.820495605469	25.06814193725587	62.062313079834	-1058.207153320313	236.6281280517579	69.23339080810548	-1044.461303710938	193.0274810791016	68.53170013427736	-946.9959716796877	364.7034301757813	805.4862060546877	-1202.174194335938	210.7870025634766	781.1674804687502	-1188.964233398438	404.1754455566407	842.5798950195315	-1393.202026367188	342.5318298339844	739.2906494140626	-1473.666625976563	296.2297363281251	699.7286376953126	-1501.023071289063	332.3003234863282	674.0623779296876	-1474.311767578125	270.9439697265626	465.995574951172	-1487.2890625	241.8888244628907	407.7007141113282	-1496.99072265625	271.2728271484376	408.7732849121095	-1456.35693359375	240.9766082763672	318.9355468750001	-1471.744506835938	406.8715209960939	835.5208129882815	-1013.987121582031	345.1347351074219	699.9793701171876	-956.7700195312502	328.6806335449219	640.8274536132814	-979.384460449219	324.8033142089844	643.1104125976564	-929.3135986328127	279.8534545898438	457.1915283203126	-927.025329589844	271.7748413085938	403.8822631835939	-963.2708740234377	263.5399475097657	396.2156982421876	-913.3306274414065	249.4323120117188	325.5118408203126	-917.5351562500002	105.417709350586	1043.078857421875	-1197.888671875	0.02779169939458371	0.007282739970833065	-0.03546980023384095	0.008815810084342958	0.009908719919621946	-0.007410139776766302	0.008154899813234808	0.07907489687204362	-0.009667299687862398	0.01306719984859228	0.1774200052022934	-0.7338680028915406	0.3907420039176942	2.943559885025025	-0.3593029975891114	2.905900001525879	0	0	
705	3.52	198.5558471679688	249.1259460449219	-2316.821533203125	237.3358459472657	252.1383056640626	-94.1517791748047	573.5131225585939	731.8420410156251	-1202.719360351563	584.4231567382814	787.015808105469	-1122.612182617188	583.3252563476564	799.4995117187502	-1277.196166992188	456.2280578613282	956.5752563476565	-1192.734008789063	263.3766784667969	1041.644653320313	-1199.380249023438	226.9490051269532	1052.790405273438	-1200.38916015625	166.3185272216797	1055.199340820313	-1147.986450195313	164.8336029052735	1054.499267578125	-1197.897827148438	71.45059204101564	1069.19775390625	-1197.939086914063	14.44113731384278	1054.539428710938	-1143.80078125	10.05642986297608	1059.650268554688	-1193.493530273438	-96.16570281982425	985.2283935546877	-1214.662109375	-85.32952880859376	988.6168212890627	-1164.8076171875	-143.1895751953125	959.204040527344	-1175.54345703125	22.84122848510743	727.1954345703126	-1426.125854492188	9.123950958251955	648.3558959960939	-1422.101318359375	53.06291961669923	673.1536254882814	-1426.338134765625	111.1702041625977	350.8756103515626	-1436.783813476563	67.98318481445314	285.2962951660157	-1430.784545898438	117.38525390625	289.4107971191407	-1430.754760742188	26.42385864257813	70.81599426269533	-1351.981079101563	236.2657470703126	72.0015335083008	-1340.897216796875	199.9800262451172	59.73009872436525	-1448.275268554688	28.27531242370606	690.6661987304689	-969.0678710937502	101.1057968139649	657.7276611328126	-966.159118652344	56.28871536254884	635.0264892578126	-967.7410888671877	89.17893218994142	340.7469787597657	-959.7374267578127	127.251937866211	271.2394714355469	-963.2005004882815	78.17507934570314	281.1086730957032	-968.7498779296877	24.96150970458985	61.991512298584	-1058.130981445313	236.5508422851563	69.52515411376955	-1044.487670898438	192.9909057617188	68.57751464843751	-947.0557250976565	365.0014038085938	805.3584594726565	-1202.344604492188	211.0633239746094	781.1185302734377	-1189.08740234375	404.4089355468751	842.4688110351565	-1393.380859375	342.4737854003907	739.2915649414064	-1473.96240234375	296.0667724609376	699.8234863281251	-1501.252685546875	332.1538696289063	674.0780029296876	-1474.63623046875	270.7898864746094	466.0324096679689	-1487.516479492188	241.6934356689454	407.7122802734376	-1497.062744140625	271.1797180175782	408.8462219238282	-1456.502075195313	240.8674774169922	318.9801025390626	-1471.697875976563	407.1856384277345	835.1887817382815	-1014.154602050781	345.4253540039063	699.7002563476564	-956.970886230469	328.7751464843751	640.5842285156251	-979.5648193359377	325.0929260253907	642.8599243164064	-929.4849853515627	279.9115905761719	457.0265502929689	-926.9771728515627	271.8138122558594	403.7069396972657	-963.2058105468752	263.5530090332032	396.0627746582032	-913.260437011719	249.4085083007813	325.3721008300782	-917.454040527344	105.7776184082032	1043.160522460938	-1197.886596679688	0.02841480076313019	0.007318810094147922	-0.03422660008072854	0.008610210381448271	0.009848659858107569	-0.007702589966356756	0.00821781996637583	0.07615429908037187	-0.00942078046500683	0.0133143998682499	0.1781529933214188	-0.7300140261650087	0.3912500143051149	2.943639993667603	-0.35801300406456	2.906389951705933	0	0	
706	3.525	198.5383453369141	249.1213836669922	-2316.811279296875	237.3071441650391	252.1372375488282	-94.14868927001955	573.7819824218751	731.6884765625001	-1202.486206054688	584.6940307617189	787.0923461914065	-1122.525390625	583.5477905273439	799.1361083984377	-1277.14794921875	456.5332641601564	956.4185791015627	-1192.863525390625	263.7615661621094	1041.602905273438	-1199.418579101563	227.3349304199219	1052.786743164063	-1200.410522460938	166.723373413086	1055.222778320313	-1147.990112304688	165.2232360839844	1054.549194335938	-1197.900146484375	71.82283782958986	1069.321899414063	-1197.910766601563	14.82782554626465	1054.679931640625	-1143.756958007813	10.42449474334717	1059.81103515625	-1193.44580078125	-95.86396789550783	985.438415527344	-1214.603515625	-85.0064163208008	988.8025512695315	-1164.742919921875	-142.8851928710938	959.4178466796877	-1175.470947265625	23.04641914367676	727.5111694335939	-1426.22412109375	9.388316154479982	648.6674194335939	-1422.182006835938	53.30571365356447	673.4969482421876	-1426.4599609375	111.5757141113282	351.2248535156251	-1436.60595703125	68.37583160400392	285.6661376953126	-1430.492309570313	117.7790832519532	289.7686157226563	-1430.528686523438	26.56654357910157	71.50201416015626	-1351.54052734375	236.3236083984376	71.95932769775392	-1340.69775390625	199.9927215576172	59.94371032714845	-1447.984985351563	28.62443733215333	690.8027954101564	-969.175720214844	101.4384307861328	657.8156738281251	-966.351989746094	56.60284805297853	635.1441650390626	-967.8825683593752	89.28329467773439	340.8432312011719	-959.7058715820315	127.2673950195313	271.2872009277344	-963.1920166015627	78.19203948974611	281.2141723632813	-968.6741333007815	24.84308052062989	61.91239166259767	-1058.051635742188	236.4587554931641	69.86457824707033	-1044.53076171875	192.9483184814454	68.64391326904298	-947.1297607421877	365.2914123535157	805.231384277344	-1202.518188476563	211.3309173583985	781.0759887695315	-1189.207763671875	404.6344604492189	842.3583984375002	-1393.562866210938	342.4226684570313	739.2984008789064	-1474.262573242188	295.9189758300782	699.9229125976564	-1501.502807617188	332.0154418945313	674.0994262695314	-1474.970825195313	270.6429138183594	466.0783691406251	-1487.7548828125	241.5057220458985	407.7269897460939	-1497.139770507813	271.0823669433594	408.9304809570314	-1456.645751953125	240.7611541748047	319.0316772460938	-1471.6396484375	407.4911499023439	834.847595214844	-1014.327819824219	345.6948547363282	699.4201660156251	-957.1752929687502	328.8643188476563	640.3382568359376	-979.7532348632815	325.3619079589844	642.6086425781251	-929.6633911132815	279.9535217285157	456.8555908203126	-926.9382934570315	271.8461303710938	403.525115966797	-963.1504516601565	263.5484313964844	395.9052124023439	-913.1995849609377	249.3712310791016	325.2305297851563	-917.3855590820315	106.134750366211	1043.253295898438	-1197.878540039063	0.02908759936690331	0.007326269987970592	-0.03313419967889786	0.008428219705820085	0.009765850380063059	-0.008023990318179132	0.008295740000903608	0.07326839864253999	-0.009193249978125097	0.01357259973883629	0.1788379997015	-0.7282130122184755	0.3923949897289277	2.943769931793213	-0.3566629886627198	2.906759977340699	0	0	
